<svg width="20" height="20" viewBox="0 0 20 20" fill="none" xmlns="http://www.w3.org/2000/svg">
<path d="M13.9582 2.96699V1.66699C13.9582 1.32533 13.6749 1.04199 13.3332 1.04199C12.9915 1.04199 12.7082 1.32533 12.7082 1.66699V2.91699H7.29153V1.66699C7.29153 1.32533 7.0082 1.04199 6.66653 1.04199C6.32486 1.04199 6.04153 1.32533 6.04153 1.66699V2.96699C3.79153 3.17532 2.69987 4.51699 2.5332 6.50866C2.51653 6.75032 2.71653 6.95032 2.94987 6.95032H17.0499C17.2915 6.95032 17.4915 6.74199 17.4665 6.50866C17.2999 4.51699 16.2082 3.17532 13.9582 2.96699Z" fill="#126DA9"/>
<path opacity="0.4" d="M16.6667 8.2002C17.125 8.2002 17.5 8.5752 17.5 9.03353V14.1669C17.5 16.6669 16.25 18.3335 13.3333 18.3335H6.66667C3.75 18.3335 2.5 16.6669 2.5 14.1669V9.03353C2.5 8.5752 2.875 8.2002 3.33333 8.2002H16.6667Z" fill="#126DA9"/>
<path d="M7.08333 12.4997C6.86667 12.4997 6.65 12.4081 6.49167 12.2581C6.34167 12.0997 6.25 11.8831 6.25 11.6664C6.25 11.4497 6.34167 11.2331 6.49167 11.0747C6.725 10.8414 7.09167 10.7664 7.4 10.8997C7.50833 10.9414 7.6 10.9997 7.675 11.0747C7.825 11.2331 7.91667 11.4497 7.91667 11.6664C7.91667 11.8831 7.825 12.0997 7.675 12.2581C7.51667 12.4081 7.3 12.4997 7.08333 12.4997Z" fill="#126DA9"/>
<path d="M10.0003 12.4997C9.78366 12.4997 9.56699 12.4081 9.40866 12.2581C9.25866 12.0997 9.16699 11.8831 9.16699 11.6664C9.16699 11.4497 9.25866 11.2331 9.40866 11.0747C9.48366 10.9997 9.57532 10.9414 9.68366 10.8997C9.99199 10.7664 10.3587 10.8414 10.592 11.0747C10.742 11.2331 10.8337 11.4497 10.8337 11.6664C10.8337 11.8831 10.742 12.0997 10.592 12.2581C10.5503 12.2914 10.5087 12.3247 10.467 12.3581C10.417 12.3914 10.367 12.4164 10.317 12.4331C10.267 12.4581 10.217 12.4747 10.167 12.4831C10.1087 12.4914 10.0587 12.4997 10.0003 12.4997Z" fill="#126DA9"/>
<path d="M12.9163 12.4997C12.6997 12.4997 12.483 12.408 12.3247 12.258C12.1747 12.0997 12.083 11.883 12.083 11.6664C12.083 11.4497 12.1747 11.233 12.3247 11.0747C12.408 10.9997 12.4913 10.9413 12.5997 10.8997C12.7497 10.833 12.9163 10.8163 13.083 10.8497C13.133 10.858 13.183 10.8747 13.233 10.8997C13.283 10.9163 13.333 10.9414 13.383 10.9747C13.4247 11.008 13.4663 11.0414 13.508 11.0747C13.658 11.233 13.7497 11.4497 13.7497 11.6664C13.7497 11.883 13.658 12.0997 13.508 12.258C13.4663 12.2913 13.4247 12.3247 13.383 12.358C13.333 12.3913 13.283 12.4164 13.233 12.433C13.183 12.458 13.133 12.4747 13.083 12.483C13.0247 12.4914 12.9663 12.4997 12.9163 12.4997Z" fill="#126DA9"/>
<path d="M7.08333 15.4167C6.975 15.4167 6.86667 15.3917 6.76667 15.35C6.65833 15.3084 6.575 15.25 6.49167 15.175C6.34167 15.0167 6.25 14.8 6.25 14.5833C6.25 14.3667 6.34167 14.15 6.49167 13.9917C6.575 13.9167 6.65833 13.8583 6.76667 13.8167C6.91667 13.75 7.08333 13.7333 7.25 13.7667C7.3 13.775 7.35 13.7917 7.4 13.8167C7.45 13.8333 7.5 13.8584 7.55 13.8917C7.59167 13.925 7.63333 13.9584 7.675 13.9917C7.825 14.15 7.91667 14.3667 7.91667 14.5833C7.91667 14.8 7.825 15.0167 7.675 15.175C7.63333 15.2083 7.59167 15.25 7.55 15.275C7.5 15.3083 7.45 15.3334 7.4 15.35C7.35 15.375 7.3 15.3917 7.25 15.4C7.19167 15.4084 7.14167 15.4167 7.08333 15.4167Z" fill="#126DA9"/>
<path d="M10.0003 15.417C9.78366 15.417 9.56699 15.3253 9.40866 15.1753C9.25866 15.017 9.16699 14.8003 9.16699 14.5837C9.16699 14.367 9.25866 14.1503 9.40866 13.992C9.71699 13.6837 10.2837 13.6837 10.592 13.992C10.742 14.1503 10.8337 14.367 10.8337 14.5837C10.8337 14.8003 10.742 15.017 10.592 15.1753C10.4337 15.3253 10.217 15.417 10.0003 15.417Z" fill="#126DA9"/>
<path d="M12.9163 15.417C12.6997 15.417 12.483 15.3253 12.3247 15.1753C12.1747 15.017 12.083 14.8003 12.083 14.5837C12.083 14.367 12.1747 14.1503 12.3247 13.992C12.633 13.6837 13.1997 13.6837 13.508 13.992C13.658 14.1503 13.7497 14.367 13.7497 14.5837C13.7497 14.8003 13.658 15.017 13.508 15.1753C13.3497 15.3253 13.133 15.417 12.9163 15.417Z" fill="#126DA9"/>
</svg>
