<svg width="20" height="21" viewBox="0 0 20 21" fill="none" xmlns="http://www.w3.org/2000/svg">
<path opacity="0.4" d="M18.3333 15.083H12.5" stroke="#A0ABBB" stroke-width="1.5" stroke-miterlimit="10" stroke-linecap="round" stroke-linejoin="round"/>
<path opacity="0.4" d="M4.16699 15.083H1.66699" stroke="#A0ABBB" stroke-width="1.5" stroke-miterlimit="10" stroke-linecap="round" stroke-linejoin="round"/>
<path opacity="0.4" d="M18.333 5.91699H15.833" stroke="#A0ABBB" stroke-width="1.5" stroke-miterlimit="10" stroke-linecap="round" stroke-linejoin="round"/>
<path opacity="0.4" d="M7.50033 5.91699H1.66699" stroke="#A0ABBB" stroke-width="1.5" stroke-miterlimit="10" stroke-linecap="round" stroke-linejoin="round"/>
<path d="M5.83366 12.583H10.8337C11.7503 12.583 12.5003 12.9997 12.5003 14.2497V15.9163C12.5003 17.1663 11.7503 17.583 10.8337 17.583H5.83366C4.91699 17.583 4.16699 17.1663 4.16699 15.9163V14.2497C4.16699 12.9997 4.91699 12.583 5.83366 12.583Z" stroke="#A0ABBB" stroke-width="1.5" stroke-miterlimit="10" stroke-linecap="round" stroke-linejoin="round"/>
<path d="M9.16667 3.41699H14.1667C15.0833 3.41699 15.8333 3.83366 15.8333 5.08366V6.75033C15.8333 8.00033 15.0833 8.41699 14.1667 8.41699H9.16667C8.25 8.41699 7.5 8.00033 7.5 6.75033V5.08366C7.5 3.83366 8.25 3.41699 9.16667 3.41699Z" stroke="#A0ABBB" stroke-width="1.5" stroke-miterlimit="10" stroke-linecap="round" stroke-linejoin="round"/>
</svg>
