<svg width="32" height="32" viewBox="0 0 32 32" fill="none" xmlns="http://www.w3.org/2000/svg">
<path d="M16.0003 29.3337C23.3641 29.3337 29.3337 23.3641 29.3337 16.0003C29.3337 8.63653 23.3641 2.66699 16.0003 2.66699C8.63653 2.66699 2.66699 8.63653 2.66699 16.0003C2.66699 23.3641 8.63653 29.3337 16.0003 29.3337Z" fill="white"/>
<path d="M17.0602 15.6469L16.7067 16.0005L17.0602 16.354L20.1269 19.4207C20.3183 19.6121 20.3183 19.9355 20.1269 20.1269C20.0256 20.2282 19.9017 20.2738 19.7738 20.2738C19.6459 20.2738 19.522 20.2282 19.4207 20.1269L16.354 17.0602L16.0005 16.7067L15.6469 17.0602L12.5802 20.1269L12.9216 20.4683L12.5802 20.1269C12.479 20.2282 12.355 20.2738 12.2271 20.2738C12.0993 20.2738 11.9753 20.2282 11.874 20.1269L11.5242 20.4767L11.874 20.1269C11.6826 19.9355 11.6826 19.6121 11.874 19.4207L14.9407 16.354L15.2942 16.0005L14.9407 15.6469L11.874 12.5802C11.6826 12.3888 11.6826 12.0654 11.874 11.874C12.0654 11.6826 12.3888 11.6826 12.5802 11.874L15.6469 14.9407L16.0005 15.2942L16.354 14.9407L19.4207 11.874C19.6121 11.6826 19.9355 11.6826 20.1269 11.874L20.4795 11.5214L20.1269 11.874C20.3183 12.0654 20.3183 12.3888 20.1269 12.5802L20.4805 12.9338L20.1269 12.5802L17.0602 15.6469Z" fill="white" stroke="#051A26"/>
</svg>
