<svg width="8" height="9" viewBox="0 0 8 9" fill="none" xmlns="http://www.w3.org/2000/svg">
<path d="M4.375 1.39062C4.375 1.01562 3.875 0.859375 3.67188 1.17188C2.1875 3.48438 4.125 4.73438 4.125 5.5C4.125 5.85938 3.84375 6.125 3.5 6.125C3.14062 6.125 2.875 5.85938 2.875 5.5V3.85938C2.875 3.54688 2.53125 3.375 2.28125 3.54688C1.46875 4.10938 1 5.03125 1 6C1 7.65625 2.34375 9 4 9C5.64062 9 7 7.65625 7 6C7 3.34375 4.375 3 4.375 1.39062ZM4 8.25C2.75 8.25 1.75 7.25 1.75 6C1.75 5.5625 1.875 5 2.125 4.625V5.5C2.125 6.26562 2.73438 6.875 3.5 6.875C4.25 6.875 4.875 6.26562 4.875 5.5C4.875 4.5 3.5 3.625 3.875 2.25C4.5 3.625 6.25 4.15625 6.25 6C6.25 7.25 5.23438 8.25 4 8.25Z" fill="white"/>
</svg>
