<svg width="12" height="12" viewBox="0 0 12 12" fill="none" xmlns="http://www.w3.org/2000/svg">
<rect x="0.5" y="0.5" width="11" height="11" rx="5.5" fill="#453A97"/>
<path d="M6.73438 6L8.42188 4.32812C8.51562 4.23438 8.51562 4.0625 8.42188 3.96875L8.03125 3.57812C7.9375 3.48438 7.76562 3.48438 7.67188 3.57812L6 5.26562L4.3125 3.57812C4.21875 3.48438 4.04688 3.48438 3.95312 3.57812L3.5625 3.96875C3.46875 4.0625 3.46875 4.23438 3.5625 4.32812L5.25 6L3.5625 7.6875C3.46875 7.78125 3.46875 7.95312 3.5625 8.04688L3.95312 8.4375C4.04688 8.53125 4.21875 8.53125 4.3125 8.4375L6 6.75L7.67188 8.4375C7.76562 8.53125 7.9375 8.53125 8.03125 8.4375L8.42188 8.04688C8.51562 7.95312 8.51562 7.78125 8.42188 7.6875L6.73438 6Z" fill="white"/>
<rect x="0.5" y="0.5" width="11" height="11" rx="5.5" stroke="white"/>
</svg>
