<svg width="20" height="20" viewBox="0 0 20 20" fill="none" xmlns="http://www.w3.org/2000/svg">
<path opacity="0.4" d="M5.4484 3.58464L5.44867 3.58448L6.89033 2.75948L6.89037 2.75955L6.89764 2.75522C7.30835 2.51087 7.85411 2.64996 8.11093 3.07888L8.19988 3.23251C8.20006 3.23283 8.20024 3.23314 8.20041 3.23345C8.62874 3.98011 9.26372 4.4651 10.0014 4.4651C10.7386 4.4651 11.3755 3.98062 11.8079 3.23459L11.808 3.23437L11.8981 3.07886C12.1549 2.64996 12.7006 2.51088 13.1113 2.75522L13.1113 2.75528L13.1187 2.75948L14.5603 3.58448L14.5606 3.58464C15.0771 3.87977 15.2544 4.54717 14.9592 5.0584C14.5268 5.80457 14.4239 6.59772 14.7921 7.23663C15.1603 7.87553 15.898 8.18385 16.7587 8.18385C17.3509 8.18385 17.842 8.67004 17.842 9.26718V10.7339C17.842 11.3261 17.3558 11.8172 16.7587 11.8172C15.898 11.8172 15.1603 12.1255 14.7921 12.7644C14.4241 13.4029 14.5267 14.1956 14.9585 14.9414C15.2554 15.4624 15.0762 16.1218 14.5606 16.4164L14.5603 16.4166L13.1187 17.2416L13.1186 17.2415L13.1113 17.2458C12.7006 17.4902 12.1549 17.3511 11.8981 16.9222L11.8091 16.7685C11.8089 16.7682 11.8087 16.7678 11.8085 16.7675C11.3802 16.0209 10.7452 15.5359 10.0076 15.5359C9.27043 15.5359 8.63349 16.0204 8.20107 16.7664L8.20094 16.7667L8.11093 16.9222C7.85411 17.3511 7.30835 17.4902 6.89764 17.2458L6.89767 17.2458L6.89033 17.2415L5.44867 16.4165L5.4484 16.4164C4.93194 16.1213 4.75461 15.4539 5.04971 14.9427C5.48214 14.1965 5.58506 13.4033 5.21687 12.7644C4.84869 12.1255 4.11102 11.8172 3.25033 11.8172C2.65318 11.8172 2.16699 11.3261 2.16699 10.7339V9.26718C2.16699 8.67495 2.65318 8.18385 3.25033 8.18385C4.11102 8.18385 4.84869 7.87553 5.21687 7.23662C5.5851 6.59764 5.48212 5.80437 5.04958 5.05812L4.61699 5.30885L5.04992 5.05871C4.75452 4.54744 4.93181 3.87983 5.4484 3.58464Z" fill="#126DA9" stroke="#126DA9"/>
<path d="M12.2087 9.99935C12.2087 11.219 11.22 12.2077 10.0003 12.2077C8.7807 12.2077 7.79199 11.219 7.79199 9.99935C7.79199 8.77972 8.7807 7.79102 10.0003 7.79102C11.22 7.79102 12.2087 8.77972 12.2087 9.99935Z" fill="#126DA9" stroke="#126DA9"/>
</svg>
