<svg width="20" height="20" viewBox="0 0 20 20" fill="none" xmlns="http://www.w3.org/2000/svg">
<path opacity="0.4" d="M14.9984 5.967C14.9484 5.95866 14.8901 5.95866 14.8401 5.967C13.6901 5.92533 12.7734 4.98366 12.7734 3.81699C12.7734 2.62533 13.7318 1.66699 14.9234 1.66699C16.1151 1.66699 17.0734 2.63366 17.0734 3.81699C17.0651 4.98366 16.1484 5.92533 14.9984 5.967Z" stroke="#051A26" stroke-width="1.5" stroke-linecap="round" stroke-linejoin="round"/>
<path opacity="0.4" d="M14.1402 12.0338C15.2819 12.2255 16.5402 12.0255 17.4236 11.4338C18.5986 10.6505 18.5986 9.36713 17.4236 8.58379C16.5319 7.99213 15.2569 7.79212 14.1152 7.99212" stroke="#051A26" stroke-width="1.5" stroke-linecap="round" stroke-linejoin="round"/>
<path opacity="0.4" d="M4.97344 5.967C5.02344 5.95866 5.08177 5.95866 5.13177 5.967C6.28177 5.92533 7.19844 4.98366 7.19844 3.81699C7.19844 2.62533 6.24011 1.66699 5.04844 1.66699C3.85677 1.66699 2.89844 2.63366 2.89844 3.81699C2.90677 4.98366 3.82344 5.92533 4.97344 5.967Z" stroke="#051A26" stroke-width="1.5" stroke-linecap="round" stroke-linejoin="round"/>
<path opacity="0.4" d="M5.8306 12.0338C4.68893 12.2255 3.4306 12.0255 2.54727 11.4338C1.37227 10.6505 1.37227 9.36713 2.54727 8.58379C3.43893 7.99213 4.71393 7.79212 5.8556 7.99212" stroke="#051A26" stroke-width="1.5" stroke-linecap="round" stroke-linejoin="round"/>
<path d="M10.0004 12.1916C9.95039 12.1833 9.89206 12.1833 9.84206 12.1916C8.69206 12.1499 7.77539 11.2083 7.77539 10.0416C7.77539 8.84994 8.73372 7.8916 9.92539 7.8916C11.1171 7.8916 12.0754 8.85827 12.0754 10.0416C12.0671 11.2083 11.1504 12.1583 10.0004 12.1916Z" stroke="#051A26" stroke-width="1.5" stroke-linecap="round" stroke-linejoin="round"/>
<path d="M7.57461 14.8168C6.39961 15.6001 6.39961 16.8835 7.57461 17.6668C8.90794 18.5585 11.0913 18.5585 12.4246 17.6668C13.5996 16.8835 13.5996 15.6001 12.4246 14.8168C11.0996 13.9335 8.90794 13.9335 7.57461 14.8168Z" stroke="#051A26" stroke-width="1.5" stroke-linecap="round" stroke-linejoin="round"/>
</svg>
