<svg width="20" height="20" viewBox="0 0 20 20" fill="none" xmlns="http://www.w3.org/2000/svg">
<path opacity="0.8" d="M10.7487 2.09975L10.7237 2.15808L8.30703 7.76641H5.93203C5.36536 7.76641 4.83203 7.87475 4.33203 8.09141L5.79036 4.60808L5.8237 4.53308L5.8737 4.39975C5.8987 4.34142 5.91536 4.29142 5.94036 4.24975C7.03203 1.72475 8.26536 1.14975 10.7487 2.09975Z" fill="#126DA9"/>
<path d="M15.2419 7.93294C14.8669 7.82461 14.4753 7.76628 14.0669 7.76628H8.30859L10.7253 2.15794L10.7503 2.09961C10.8669 2.14128 10.9919 2.19961 11.1169 2.24128L12.9586 3.01628C13.9836 3.44128 14.7003 3.88294 15.1419 4.41628C15.2169 4.51628 15.2836 4.60794 15.3503 4.71628C15.4253 4.83294 15.4836 4.94961 15.5169 5.07461C15.5503 5.14961 15.5753 5.21628 15.5919 5.29128C15.8086 5.99961 15.6753 6.85794 15.2419 7.93294Z" fill="#126DA9"/>
<path opacity="0.4" d="M18.1339 11.8333V13.4583C18.1339 13.6249 18.1255 13.7916 18.1172 13.9499C17.9589 16.8666 16.3339 18.3333 13.2505 18.3333H6.75052C6.54219 18.3333 6.35052 18.3166 6.15885 18.2916C3.50885 18.1166 2.09219 16.6999 1.90885 14.0499C1.88385 13.8499 1.86719 13.6583 1.86719 13.4583V11.8333C1.86719 10.1583 2.88385 8.7166 4.33385 8.0916C4.83385 7.87494 5.36719 7.7666 5.93385 7.7666H14.0672C14.4755 7.7666 14.8672 7.82494 15.2422 7.93327C16.9089 8.4416 18.1339 9.9916 18.1339 11.8333Z" fill="#126DA9"/>
<path opacity="0.6" d="M5.79219 4.6084L4.33385 8.09173C2.88385 8.71673 1.86719 10.1584 1.86719 11.8334V9.39173C1.86719 7.02507 3.55052 5.05007 5.79219 4.6084Z" fill="#126DA9"/>
<path opacity="0.6" d="M18.1339 9.39186V11.8335C18.1339 9.99186 16.9089 8.44186 15.2422 7.93353C15.6755 6.85853 15.8089 6.0002 15.5922 5.29186C15.5755 5.21686 15.5505 5.1502 15.5172 5.0752C17.0755 5.88353 18.1339 7.5252 18.1339 9.39186Z" fill="#126DA9"/>
<path d="M12.0846 13.958H7.91797C7.5763 13.958 7.29297 13.6747 7.29297 13.333C7.29297 12.9913 7.5763 12.708 7.91797 12.708H12.0846C12.4263 12.708 12.7096 12.9913 12.7096 13.333C12.7096 13.6747 12.4263 13.958 12.0846 13.958Z" fill="#126DA9"/>
</svg>
