<svg width="16" height="16" viewBox="0 0 16 16" fill="none" xmlns="http://www.w3.org/2000/svg">
<mask id="mask0_2388_2546" style="mask-type:alpha" maskUnits="userSpaceOnUse" x="1" y="1" width="14" height="14">
<path fill-rule="evenodd" clip-rule="evenodd" d="M8.00065 1.33301C4.32065 1.33301 1.33398 4.31967 1.33398 7.99967C1.33398 11.6797 4.32065 14.6663 8.00065 14.6663C11.6807 14.6663 14.6673 11.6797 14.6673 7.99967C14.6673 4.31967 11.6807 1.33301 8.00065 1.33301ZM8.00065 8.66634C7.63398 8.66634 7.33398 8.36634 7.33398 7.99967V5.33301C7.33398 4.96634 7.63398 4.66634 8.00065 4.66634C8.36732 4.66634 8.66732 4.96634 8.66732 5.33301V7.99967C8.66732 8.36634 8.36732 8.66634 8.00065 8.66634ZM7.33398 9.99967V11.333H8.66732V9.99967H7.33398Z" fill="black"/>
</mask>
<g mask="url(#mask0_2388_2546)">
<rect width="16" height="16" fill="#CE6C47"/>
</g>
</svg>
