<svg width="172" height="32" viewBox="0 0 172 32" fill="none" xmlns="http://www.w3.org/2000/svg">
<path fill-rule="evenodd" clip-rule="evenodd" d="M32.8155 11.717L38.674 14.6463L44.5325 11.717V0H32.8155V11.717ZM20 22.0634L26.2091 32L36.1457 25.7909L36.1463 18.8823L29.9366 15.8543L20 22.0634ZM57.5587 22.0634L51.3496 32L41.413 25.7909L41.4123 18.8823L47.622 15.8543L57.5587 22.0634Z" fill="#83C6F2"/>
<path d="M93.4946 5.10385H89.5266L83.5106 15.1519L77.5266 5.10385H73.5586L81.6226 18.5439V27.5039H85.3986V18.5439L93.4946 5.10385Z" fill="#051A26"/>
<path d="M107.416 4.04785V11.8239C105.88 10.5439 103.928 9.80785 101.72 9.80785C96.4716 9.80785 92.7276 13.6799 92.7276 18.8959C92.7276 24.0479 96.4716 27.9519 101.72 27.9519C104.12 27.9519 106.264 27.0559 107.8 25.5519L108.28 27.5359H110.968V4.04785H107.416ZM101.976 24.5599C98.7436 24.5599 96.3436 22.1279 96.3436 18.8639C96.3436 15.6319 98.7436 13.1999 101.976 13.1999C105.24 13.1999 107.64 15.6319 107.64 18.8639C107.64 22.0959 105.24 24.5599 101.976 24.5599Z" fill="#051A26"/>
<path d="M132.455 18.9279C132.455 13.9039 128.935 9.80785 123.623 9.80785C118.567 9.80785 114.759 13.7119 114.759 18.8639C114.759 24.0479 118.567 27.9519 123.623 27.9519C127.495 27.9519 130.663 25.7119 132.039 22.0639H128.295C127.367 23.6639 125.703 24.6239 123.623 24.6239C120.807 24.6239 118.791 22.8959 118.343 20.0799H132.359C132.423 19.6959 132.455 19.3119 132.455 18.9279ZM123.623 13.0399C126.279 13.0399 128.231 14.5759 128.871 17.1999H118.439C119.015 14.6399 120.967 13.0399 123.623 13.0399Z" fill="#051A26"/>
<path d="M147.534 10.2239L142.478 23.0559L137.294 10.2239H133.55L140.846 27.5039H144.078L151.182 10.2239H147.534Z" fill="#051A26"/>
</svg>
